<?xml version="1.0" encoding="utf-8"?>
<!-- Generator: Adobe Illustrator 15.1.0, SVG Export Plug-In . SVG Version: 6.00 Build 0)  -->
<!DOCTYPE svg PUBLIC "-//W3C//DTD SVG 1.0//EN" "http://www.w3.org/TR/2001/REC-SVG-20010904/DTD/svg10.dtd">
<svg version="1.0" id="Layer_1" xmlns="http://www.w3.org/2000/svg" xmlns:xlink="http://www.w3.org/1999/xlink" x="0px" y="0px"
	 width="375px" height="340px" viewBox="0 0 375 340" enable-background="new 0 0 375 340" xml:space="preserve">
<g>
	<defs>
		<rect id="SVGID_1_" x="30.07" y="12.575" width="319.034" height="301.425"/>
	</defs>
	<clipPath id="SVGID_2_">
		<use xlink:href="#SVGID_1_"  overflow="visible"/>
	</clipPath>
	<radialGradient id="SVGID_3_" cx="255.0674" cy="124.8911" r="63.4245" gradientUnits="userSpaceOnUse">
		<stop  offset="0" style="stop-color:#FFFFFF"/>
		<stop  offset="0" style="stop-color:#F7E4D1"/>
		<stop  offset="0" style="stop-color:#E3B6AD"/>
	</radialGradient>
	<path clip-path="url(#SVGID_2_)" fill="url(#SVGID_3_)" stroke="#1D1D1B" stroke-linecap="round" stroke-linejoin="round" d="
		M194.167,4.001c-9.765,0.133-10.81,3.905-10.81,3.905c0,17.188,1.29,24.394,1.563,32.425c0.062,1.796-0.384,27.747,8.333,33.851
		c4.93,3.45,9.67,5.288,10.546,11.326c0.53,3.683,2.918,5.51,4.669,8.715c2.88,5.566-5.641,12.307-7.762,16.371
		c-8.781,13.292-8.914,28.647-11.961,43.557c-1.101,7.162-6.151,10.77-8.6,16.984c-3.301,6.806-6.361,10.466-13.014,12.636
		c-5.177,1.449-8.866,5.066-13.296,7.958c-3.461-6.761-14.534-11.332-21.361-7.545l-0.815-0.413
		c-8.743-10.269-22.616-11.243-31.748-6.474l-1.469,0.919c-8.475,5.943-13.322,13.474-14.521,32.265
		c-0.781,12.231-0.318,22.962,0.053,31.578c0.208,4.903,0.217,4.838,0.446,8.406c1.299,20.312,7.574,30.424,21.348,37.756
		c12.232,6.51,33.242,9.661,50.063,0.53c11.025-5.984,22.927-19.868,22.927-19.868c3.216-3.756,11.09-8.795,14.639,4.481
		c3.617,13.532,5.261,27.18,5.434,45.256c0.065,6.904,7.195,8.526,14.044,7.612c6.839-0.911,10.215-4.032,10.732-10.915
		c0.915-12.141,0.101-35-7.413-51.597c-8.774-19.38-19.948-23.236-26.804-24.337c-11.576-1.85-23.439,1.822-32.855,15.304
		c-4.729,6.774-19.604,24.3-39.221,9.34c-4.318-3.293-7.903-6.79-8.165-15.646c-0.13-4.357,0.01-2.288-0.209-7.394
		c-0.364-8.439-0.769-18.012-0.074-28.913c0.172-2.743,0.384-4.876,0.645-6.558l0,0c5.074,2.736,8.749,1.073,9.919-1.661
		c0,0,1.003,5.998,16.795,16.012c32.029,20.313,66.009,10.938,66.009,10.938c16.405-3.907,24.219-7.42,32.444-14.639
		c10.998-9.65,14.083-20.893,27.315-29.107c7.339-3.991,16.226-8.211,21.875-14.06c10.933-11.327,15.101-17.057,20.308-30.078
		c8.031-20.073,8.593-41.008-7.495-64.432c-11.324-16.493-37.733-32.726-63.591-21.495c-5.438,2.362-9.539,7.329-11.775,12.113
		c-1.167,2.755-3.23,11.216-9.805,10.205l-1.534-1.336c-2.187-1.975-3.653-45.897-4.594-70.071
		C205.383,7.907,203.933,3.867,194.167,4.001z"/>
	<path clip-path="url(#SVGID_2_)" fill="#F9ECE6" stroke="#F0D1C5" d="M194.133,1.481L194.133,1.481
		c-11.092,0.152-12.945,4.82-13.205,5.754c-0.062,0.219-0.092,0.445-0.092,0.672c0,6.688,1.48,44.919,1.48,44.919
		c0.603,14.966,3.91,20.006,9.492,23.421c0.001,0,2.729,1.811,2.729,1.811c4.085,2.634,5.457,3.875,7.753,6.744
		c3.779,4.724,3.965,10.63,3.965,10.63c-0.343,3.544-1.936,6.353-4.509,9.492c-1.31,1.598-2.545,3.107-3.273,4.505
		c0.04-0.077,0.084-0.151,0.131-0.223c-6.892,10.432-8.691,22.082-10.43,33.347c-0.566,3.654-1.149,7.431-1.898,11.094
		c-0.587,3.803-2.423,6.502-4.369,9.359c-1.478,2.17-3.005,4.414-4.105,7.206c0.023-0.06,0.049-0.118,0.077-0.177
		c-3.349,6.902-6.041,9.551-11.528,11.339c-4.064,1.136-7.287,3.498-10.404,5.782c0,0-0.759,0.536-1.485,1.049
		c-2.45-3.116-6.21-5.712-10.486-7.013c-4.045-1.232-7.894-1.093-11.133,0.173c-9.787-10.704-24.425-11.353-34.096-6.302
		c-0.06,0.031-0.115,0.063-0.171,0.098l-1.469,0.919c-8.775,6.149-14.406,13.985-15.699,34.24
		c-0.79,12.367-0.324,23.168,0.051,31.847l0.38,7.397l0.068,1.062c1.322,20.673,7.681,31.836,22.679,39.818
		c12.989,6.914,34.941,10.025,52.448,0.521c11.302-6.136,23.14-19.862,23.638-20.442c1.579-1.844,4.132-3.631,6.011-3.204
		c1.711,0.39,3.231,2.768,4.282,6.698c3.576,13.382,5.176,26.729,5.347,44.628c0.028,2.978,1.135,5.499,3.202,7.291
		c4.021,3.486,10.304,3.247,13.692,2.796c8.215-1.098,12.319-5.3,12.916-13.227c1.073-14.223-0.282-36.594-7.63-52.823
		c-6.959-15.37-16.348-23.802-28.702-25.786c-9.809-1.566-23.899-0.003-35.319,16.349c-2.581,3.699-9.595,12.46-18.971,13.924
		c-5.457,0.853-11.06-0.879-16.656-5.146c-3.924-2.991-6.944-5.9-7.174-13.716c0-0.001-0.067-3.036-0.067-3.036l-0.144-4.394
		c-0.216-5.033-0.451-10.474-0.451-16.382c0-3.881,0.101-7.962,0.374-12.261c0.075-1.178,0.158-2.203,0.248-3.164
		c2.439,0.637,4.351,0.349,5.661-0.109c0.552-0.192,1.064-0.449,1.543-0.746c2.116,3.08,6.573,7.775,16.043,13.783
		c32.596,20.67,66.598,11.632,68.03,11.237c16.75-3.986,24.896-7.682,33.436-15.175c4.858-4.261,8.204-8.782,11.443-13.151
		c4.27-5.765,8.307-11.206,15.508-15.686c0.181-0.097,3.287-1.761,3.287-1.761c6.574-3.496,14.025-7.457,19.102-12.713
		c10.863-11.254,15.398-17.297,20.837-30.892c3.781-9.458,5.685-18.492,5.685-27.297c0-13.474-4.454-26.408-13.444-39.497
		c-13.162-19.17-41.002-33.528-66.673-22.378c-5.43,2.359-10.188,7.228-13.052,13.357c-0.039,0.085-0.593,1.529-0.593,1.529
		c-1.641,4.476-3.079,8.931-5.899,7.299c-2.69-1.045-3.613-42.133-4.377-62.215L207.9,7.81c-0.011-0.258-0.06-0.511-0.146-0.753
		C207.412,6.099,205.14,1.33,194.133,1.481z M194.202,6.521L194.202,6.521c6.132-0.083,8.152,1.569,8.689,2.171
		c0.041,1.11,0.235,6.156,0.235,6.156c2.033,53.457,3.172,56.412,3.73,59.087c0.787,3.78,1.573,8.032,4.252,8.977
		c6.955,2.456,10.78-8.106,12.063-11.605l0.463-1.216c2.278-4.871,6.202-8.934,10.458-10.783
		c26.016-11.299,50.923,6.644,60.511,20.609c13.822,20.126,16.121,39.849,7.231,62.07c-5.162,12.909-9.264,18.368-19.781,29.265
		c-4.521,4.679-11.597,8.442-17.84,11.762l-3.423,1.834c-0.049,0.025-0.081,0.045-0.127,0.073
		c-8.042,4.991-12.56,11.089-16.93,16.988c-3.08,4.155-6.267,8.457-10.72,12.363c-7.924,6.955-15.253,10.245-31.365,14.084
		c-0.415,0.111-33.385,8.769-64.076-10.616c-1.992-1.259-9.778-5.161-11.038-13.508c-0.48-3.177,0.809-8.14-0.63-8.716
		c-1.575-0.629-4.252,3.938-6.143,5.513c-1.645,1.372-3.052,2.368-3.938,2.679c-1.271,0.443-3.215,0.617-5.121-0.408
		c-0.72-0.389-1.585-0.402-2.317-0.038c-0.732,0.364-1.243,1.062-1.368,1.87c-0.276,1.774-0.495,3.995-0.671,6.786
		c-0.708,11.11-0.294,20.71,0.072,29.178l0.139,4.227l0.069,3.137c0.294,10,4.684,14.164,9.155,17.573
		c6.731,5.132,13.624,7.189,20.492,6.116c10.884-1.699,18.66-10.765,22.324-16.017c7.967-11.412,18.193-16.206,30.39-14.258
		c3.879,0.623,15.684,2.517,24.907,22.887c7.439,16.433,8.022,39.391,7.197,50.367c-0.415,5.498-2.733,7.832-8.557,8.609
		c-4.271,0.568-7.905-0.031-9.726-1.607c-0.971-0.844-1.449-1.998-1.464-3.531c-0.175-18.349-1.825-32.07-5.517-45.883
		c-1.605-5.993-4.307-9.462-8.036-10.312c-4.203-0.954-8.414,1.874-10.953,4.841c-0.117,0.134-11.737,13.603-22.216,19.292
		c-15.87,8.617-35.839,5.759-47.676-0.54c-13.384-7.123-18.809-16.796-20.017-35.693l-0.068-1.064l-0.375-7.287
		c-0.221-5.145-0.476-11.044-0.476-17.559c0-4.327,0.112-8.923,0.421-13.751c1.168-18.322,5.816-25.007,13.45-30.36
		c0.011-0.004,0.955-0.595,1.24-0.772c5.624-2.917,12.661-3.579,19.118-0.396c2.663,1.313,4.355,3.122,5.19,6.324
		c0.944,3.623-0.63,6.772,1.26,7.875c1.89,1.104,5.669-3.307,7.875-4.567c2.204-1.261,4.567-2.362,8.032-2.047
		c4.173,0.379,7.482,3.23,8.991,6.18c0.333,0.649,0.894,1.148,1.603,1.323c0.707,0.174,1.422,0.059,2.017-0.362l3.714-2.616
		c2.88-2.111,5.601-4.106,8.886-5.025c7.792-2.538,11.242-7.037,14.602-13.962c0.027-0.058,0.053-0.116,0.076-0.177
		c0.895-2.268,2.2-4.187,3.583-6.216c2.175-3.196,4.424-6.5,5.162-11.308c0.752-3.661,1.346-7.5,1.918-11.212
		c1.733-11.224,3.371-21.825,9.655-31.337c0.048-0.072,0.091-0.147,0.131-0.224c0.489-0.938,1.565-2.251,2.707-3.643
		c2.595-3.167,5.047-7.345,5.938-11.477c0.312-1.444,1.258-7.586-2.208-12.469c-3.554-5.009-8.104-7.768-12.108-10.349l-2.57-1.704
		c-3.589-2.593-6.864-6.063-7.37-19.603c0,0-1.433-37.351-1.447-43.912C186.382,8.062,188.269,6.602,194.202,6.521z"/>
</g>
<text transform="matrix(1 0 0 1 43.7188 86.6245)" fill="#333333" font-family="Liberation Sans, Helvetica, Arial, sans-serif" font-size="14.1">Cardiac sphincter</text>
<text transform="matrix(1 0 0 1 44.7192 134.4141)" fill="#333333" font-family="Liberation Sans, Helvetica, Arial, sans-serif" font-size="14.1">Pyloric sphincter</text>
<text transform="matrix(1 0 0 1 13.5903 297.166)" fill="#333333" font-family="Liberation Sans, Helvetica, Arial, sans-serif" font-size="14.1">Duodenum</text>
<text transform="matrix(1 0 0 1 73 64.2231)" fill="#333333" font-family="Liberation Sans, Helvetica, Arial, sans-serif" font-size="14.1">Oesophagus</text>
<text transform="matrix(1 0 0 1 315.3252 77.9946)" fill="#333333" font-family="Liberation Sans, Helvetica, Arial, sans-serif" font-size="14.1">Fundus</text>
<text transform="matrix(1 0 0 1 318.0234 157.7534)" fill="#333333" font-family="Liberation Sans, Helvetica, Arial, sans-serif" font-size="14.1">Middle</text>
<text transform="matrix(1 0 0 1 313.9072 217.9844)" fill="#333333" font-family="Liberation Sans, Helvetica, Arial, sans-serif" font-size="14.1">Pylorus</text>
<line fill="none" stroke="#1D1D1B" x1="191.658" y1="60.5" x2="157.333" y2="60.5"/>
<line fill="none" stroke="#1D1D1B" x1="248.629" y1="153.5" x2="312.85" y2="153.5"/>
<line fill="none" stroke="#1D1D1B" x1="165.245" y1="213.5" x2="307.671" y2="213.5"/>
<line fill="none" stroke="#1D1D1B" x1="257.951" y1="73.5" x2="309.225" y2="73.5"/>
<line fill="none" stroke="#333333" x1="97" y1="241.5" x2="49" y2="241.5"/>
<line fill="none" stroke="#333333" x1="48.5" y1="241" x2="48.5" y2="279"/>
<line fill="none" stroke="#333333" x1="126.5" y1="193" x2="126.5" y2="143"/>
<line fill="none" stroke="#1D1D1B" x1="211" y1="82.5" x2="157" y2="82.5"/>
</svg>
